<svg width="17" height="12" fill="none" xmlns="http://www.w3.org/2000/svg"><path d="M13.788.55l1.025-.48.82.41.514.171.17.171.035.24-.103.512-.513.752-1.093 1.196-.342.992.512.615.513.718.069.205.102.65L15.702 8l-.376.82-.82 1.265-1.367 1.299-1.162.342-.855-.24-.82-.752-1.3-1.845-.204-.65.034-.273.684-1.06.752-1.914 1.06-1.572 1.195-1.504L13.788.55zM7.328.48l.718.376-.308.923L6.2 3.73l-.205.786.581.786.513.718.102.82.171 1.196v.069l-.034.17-1.162 1.812-1.367 1.299-1.162.342-.82-.24-.82-.752L.662 8.89l-.205-.65.034-.205.069-.137.615-.957.786-2.016L2.987 3.42 5.21.789l.854-.615L6.44.07l.89.41z" fill="#E3B7B5"/></svg>